<svg xmlns="http://www.w3.org/2000/svg" width="1200" height="630" viewBox="0 0 1200 630">
  <defs>
    <radialGradient id="g1" cx="0.12" cy="0.06" r="0.5">
      <stop offset="0" stop-color="#2f8050" stop-opacity=".30"/>
      <stop offset="1" stop-color="#08110c" stop-opacity="0"/>
    </radialGradient>
    <radialGradient id="g2" cx="0.92" cy="0.72" r="0.45">
      <stop offset="0" stop-color="#2f8050" stop-opacity=".16"/>
      <stop offset="1" stop-color="#08110c" stop-opacity="0"/>
    </radialGradient>
  </defs>
  <rect width="1200" height="630" fill="#08110c"/>
  <rect width="1200" height="630" fill="url(#g1)"/>
  <rect width="1200" height="630" fill="url(#g2)"/>

  <g opacity=".72" fill="none" stroke="#63d995">
    <circle cx="1112" cy="80" r="285" stroke-width="2"/>
  </g>
  <g opacity=".45" fill="none" stroke="#2f8b54" stroke-width="1.6">
    <path d="M720 565 L1210 410"/>
    <path d="M720 565 L1210 442"/>
    <path d="M720 565 L1210 474"/>
    <path d="M720 565 L1210 506"/>
    <path d="M720 565 L1210 538"/>
  </g>

  <g transform="translate(70 50)">
    <g transform="scale(1.38)">
      <path d="M4 47L14 12L38 2L32 19C26 20 21 23 20 28C19 33 22 37 28 38L24 51Z" fill="#63d995"/>
      <path d="M20 28C21 23 25 20 32 19L28 30C27 33 28 35 31 37L28 38C22 37 19 33 20 28Z" fill="#2fae68"/>
      <path d="M26 51L33 20L52 11L44 43Z" fill="#f3f4ef"/>
    </g>
    <rect x="88" y="3" width="1" height="62" fill="#f3f4ef" opacity=".28"/>
    <text x="113" y="31" fill="#f3f4ef" font-family="Arial, Helvetica, sans-serif" font-weight="700" font-size="25" letter-spacing="1.1">HENDRY</text>
    <text x="113" y="58" fill="#e5e9e6" font-family="Arial, Helvetica, sans-serif" font-weight="400" font-size="17" letter-spacing="5.5">COMMERCIAL</text>
  </g>

  <g fill="#8da095" font-family="Arial, Helvetica, sans-serif" font-size="14" letter-spacing="3">
    <text x="965" y="92">QUESTION</text>
    <text x="965" y="122">SIMPLIFY</text>
    <text x="965" y="152">BUILD</text>
    <text x="965" y="182">GROW</text>
  </g>
  <rect x="965" y="207" width="42" height="3" rx="1.5" fill="#63d995"/>

  <text x="70" y="270" fill="#f3f4ef" font-family="Arial, Helvetica, sans-serif" font-weight="700" font-size="70" letter-spacing="-2">Jonathan Hendry</text>
  <text x="72" y="330" fill="#63d995" font-family="Arial, Helvetica, sans-serif" font-weight="700" font-size="31">Commercial Leader · Builder</text>
  <text x="72" y="410" fill="#d7dfd9" font-family="Arial, Helvetica, sans-serif" font-size="23" letter-spacing="8">BUY  ·  SELL  ·  BUILD</text>
  <rect x="72" y="505" width="64" height="3" rx="1.5" fill="#63d995"/>
  <text x="72" y="555" fill="#b8c4bc" font-family="Arial, Helvetica, sans-serif" font-size="21">hendrycommercial.co.uk</text>
</svg>